# xmcd
#
# Track frame offsets:
#	150
#	10479
#	21276
#	37758
#	51020
#	69651
#	84068
#	91359
#	102677
#	116034
#	126547
#	144510
#	155614
#
# Disc length: 2213
#
# Revision: 1
# Processed by: cddbd v1.5.1PL0 Copyright (c) Steve Scherf et al.
# Submitted via: CDex 1.51
# Normalized: r0:DSETVAR1,TDELIM( - )
#
DISCID=ae08a30d
DTITLE=Various Artist - Jazz, The Ultimate Collection
DYEAR=1900
DGENRE=Jazz
TTITLE0=Louis Armstrong - A Wonderful World
TTITLE1=Aretha Franklin - Respect
TTITLE2=Nina Simone - My Baby Just Cares For Me
TTITLE3=Duke Ellington - Flamingo
TTITLE4=Miles Davis - Out Of Nowhere
TTITLE5=Sara Vaughan - I've Got The World On A String
TTITLE6=Frank Sinatra - After I Say I'm Sorry
TTITLE7=Artie Shaw - Oh Look, At There! Ain't She Pretty
TTITLE8=Duke Ellington - C Jam Blues
TTITLE9=Sarah Vaughan - Friendly Enemies
TTITLE10=Louis Armstrong - Cabaret
TTITLE11=Billy Hollyday - Fooling Myself
TTITLE12=Count Basie - Five In The Morning Blues
EXTD=
EXTT0=
EXTT1=
EXTT2=
EXTT3=
EXTT4=
EXTT5=
EXTT6=
EXTT7=
EXTT8=
EXTT9=
EXTT10=
EXTT11=
EXTT12=
PLAYORDER=
